<svg width="20" height="30" viewBox="0 0 20 30" fill="none" xmlns="http://www.w3.org/2000/svg">
<g id="css">
<g id="logos:css-3">
<path id="Vector" d="M9.98796 29.9242L1.84874 27.5207L0.0349121 5.88083H19.9654L18.1497 27.5174L9.98796 29.9242Z" fill="#264DE4"/>
<path id="Vector_2" d="M16.5951 26.1396L18.1466 7.65015H10V28.0845L16.5951 26.1396Z" fill="#2965F1"/>
<path id="Vector_3" d="M4.19287 15.6761L4.41646 18.3301H9.99998V15.6761H4.19287Z" fill="#EBEBEB"/>
<path id="Vector_4" d="M3.74353 10.3043L3.97033 12.9583H10V10.3043H3.74353Z" fill="#EBEBEB"/>
<path id="Vector_5" d="M9.99998 22.569L9.98905 22.5721L7.2103 21.774L7.03264 19.6573H4.52795L4.87749 23.8245L9.9885 25.3336L9.99998 25.3303V22.569Z" fill="#EBEBEB"/>
<path id="Vector_6" d="M4.72534 0H7.74722V1.34427H5.98909V2.68853H7.74737V4.03271H4.72534V0Z" fill="black"/>
<path id="Vector_7" d="M8.35164 0H11.3736V1.16892H9.61539V1.40269H11.3736V4.09122H8.35172V2.86371H10.1099V2.62995H8.35156V0H8.35164Z" fill="black"/>
<path id="Vector_8" d="M11.978 0H15V1.16892H13.2418V1.40269H15V4.09122H11.978V2.86371H13.7362V2.62995H11.9781V0H11.978Z" fill="black"/>
<path id="Vector_9" d="M15.7912 15.6761L16.2416 10.3043H9.99141V12.9583H13.5072L13.2802 15.6761H9.99141V18.3302H13.0638L12.7741 21.7723L9.99133 22.5712V25.3324L15.1064 23.8245L15.1439 23.3761L15.7303 16.3888L15.7912 15.6761Z" fill="white"/>
</g>
</g>
</svg>
