<svg width="13" height="22" viewBox="0 0 13 22" fill="none" xmlns="http://www.w3.org/2000/svg">
<path id="Vector" d="M11.99 0.595949C10.9813 0.488938 9.96746 0.436861 8.95305 0.439949C5.59005 0.439949 3.50005 2.58195 3.50005 6.02995V8.37095H0.675049C0.542441 8.37095 0.415263 8.42363 0.321495 8.5174C0.227727 8.61116 0.175049 8.73834 0.175049 8.87095V12.7209C0.175049 12.8536 0.227727 12.9807 0.321495 13.0745C0.415263 13.1683 0.542441 13.2209 0.675049 13.2209H3.50005V20.9409C3.50005 21.0736 3.55273 21.2007 3.64649 21.2945C3.74026 21.3883 3.86744 21.4409 4.00005 21.4409H7.97805C8.11066 21.4409 8.23783 21.3883 8.3316 21.2945C8.42537 21.2007 8.47805 21.0736 8.47805 20.9409V13.2209H11.294C11.4154 13.221 11.5327 13.1769 11.624 13.0969C11.7152 13.0168 11.7743 12.9063 11.79 12.7859L12.287 8.93595C12.2963 8.86538 12.2904 8.79365 12.2697 8.72556C12.249 8.65746 12.214 8.59457 12.167 8.54108C12.1201 8.4876 12.0623 8.44475 11.9974 8.41541C11.9326 8.38607 11.8622 8.37091 11.791 8.37095H8.47805V6.41195C8.47805 5.44195 8.67305 5.03695 9.88605 5.03695H11.925C12.0577 5.03695 12.1848 4.98427 12.2786 4.8905C12.3724 4.79673 12.425 4.66956 12.425 4.53695V1.09195C12.4251 0.970557 12.381 0.85329 12.301 0.762025C12.2209 0.670759 12.1104 0.61173 11.99 0.595949ZM11.425 4.03595L9.88505 4.03695C7.72805 4.03695 7.47805 5.39295 7.47805 6.41195V8.87195C7.47805 9.00438 7.53059 9.13141 7.62414 9.22515C7.71769 9.31889 7.84461 9.37168 7.97705 9.37195H11.223L10.854 12.2219H7.97805C7.84544 12.2219 7.71826 12.2746 7.6245 12.3684C7.53073 12.4622 7.47805 12.5893 7.47805 12.7219V20.4399H4.50005V12.7219C4.50005 12.5893 4.44737 12.4622 4.3536 12.3684C4.25983 12.2746 4.13266 12.2219 4.00005 12.2219H1.17605V9.37195H4.00005C4.13266 9.37195 4.25983 9.31927 4.3536 9.2255C4.44737 9.13173 4.50005 9.00456 4.50005 8.87195V6.02995C4.50005 3.15595 6.16505 1.43995 8.95305 1.43995C9.96205 1.43995 10.873 1.49495 11.425 1.54295V4.03595Z" fill="white"/>
</svg>
