<svg width="22" height="22" viewBox="0 0 22 22" fill="none" xmlns="http://www.w3.org/2000/svg">
<g id="Group">
<path id="Vector" d="M15 21.027V18.157C15.0375 17.6802 14.973 17.2008 14.811 16.7508C14.6489 16.3008 14.3929 15.8905 14.06 15.547C17.2 15.197 20.5 14.007 20.5 8.54704C20.4997 7.15086 19.9626 5.80824 19 4.79704C19.4558 3.57554 19.4236 2.22539 18.91 1.02704C18.91 1.02704 17.73 0.677037 15 2.50704C12.708 1.88586 10.2919 1.88586 7.99995 2.50704C5.26995 0.677037 4.08996 1.02704 4.08996 1.02704C3.57633 2.22539 3.5441 3.57554 3.99995 4.79704C3.03008 5.81574 2.49248 7.1705 2.49995 8.57704C2.49995 13.997 5.79995 15.187 8.93995 15.577C8.61095 15.917 8.35722 16.3224 8.19526 16.767C8.03331 17.2115 7.96676 17.6851 7.99995 18.157V21.027" stroke="white" stroke-width="1.5" stroke-linecap="round" stroke-linejoin="round"/>
<path id="Vector_2" d="M8 19.027C5 20 2.5 19.027 1 16.027" stroke="white" stroke-width="1.5" stroke-linecap="round" stroke-linejoin="round"/>
</g>
</svg>
