<svg
  width="27"
  height="26"
  viewBox="0 0 27 26"
  fill="none"
  xmlns="http://www.w3.org/2000/svg"
>
<g id="GitHubIcon">
<path
      id="Vector"
      d="M18.7432 25V21.5606C18.7899 20.9892 18.7097 20.4147 18.5081 19.8754C18.3064 19.3361 17.9879 18.8444 17.5737 18.4328C21.4804 18.0134 25.5862 16.5873 25.5862 10.044C25.5859 8.37087 24.9177 6.76187 23.7199 5.55006C24.2871 4.08622 24.247 2.4682 23.6079 1.03211C23.6079 1.03211 22.1398 0.612671 18.7432 2.80573C15.8916 2.06132 12.8856 2.06132 10.034 2.80573C6.63738 0.612671 5.16925 1.03211 5.16925 1.03211C4.53022 2.4682 4.49011 4.08622 5.05728 5.55006C3.85059 6.77086 3.18171 8.3944 3.19101 10.08C3.19101 16.5753 7.29679 18.0014 11.2035 18.4687C10.7942 18.8762 10.4785 19.362 10.277 19.8947C10.0755 20.4274 9.99269 20.995 10.034 21.5606V25"
      stroke="#CFCFCF"
      stroke-width="2"
      stroke-linecap="round"
      stroke-linejoin="round"
    />
<path
      id="Vector_2"
      d="M10.0339 22.6032C6.30141 23.7693 3.19097 22.6032 1.32471 19.0081"
      stroke="#CFCFCF"
      stroke-width="2"
      stroke-linecap="round"
      stroke-linejoin="round"
    />
</g>
</svg>
