<svg width="20" height="30" viewBox="0 0 20 30" fill="none" xmlns="http://www.w3.org/2000/svg">
<g id="html">
<g id="logos:html-5">
<path id="Vector" d="M19.9654 5.88083L18.1497 27.5174L9.98796 29.9242L1.84874 27.5207L0.0349121 5.88083H19.9654Z" fill="#E44D26"/>
<path id="Vector_2" d="M10 28.0845L16.5951 26.1396L18.1466 7.65018H10V28.0845Z" fill="#F16529"/>
<path id="Vector_3" d="M6.47033 12.9583H10V10.3043H3.74353L3.80322 11.0163L4.4165 18.3302H10V15.6761H6.69837L6.47033 12.9583Z" fill="#EBEBEB"/>
<path id="Vector_4" d="M7.03264 19.6572H4.52795L4.87749 23.8245L9.9885 25.3336L9.99999 25.3303V22.569L9.98905 22.572L7.2103 21.7739L7.03264 19.6572Z" fill="#EBEBEB"/>
<path id="Vector_5" d="M1.88904 0H3.15701V1.33255H4.31693V0H5.58497V4.03529H4.31701V2.68404H3.15708V4.03529H1.88912V0H1.88904Z" fill="black"/>
<path id="Vector_6" d="M7.25232 1.3382H6.13623V0H9.63732V1.3382H8.52053V4.03529H7.25256V1.3382H7.25248H7.25232Z" fill="black"/>
<path id="Vector_7" d="M10.193 0H11.5151L12.3284 1.41789L13.1409 0H14.4635V4.03529H13.2007V2.03518L12.3284 3.46994H12.3065L11.4336 2.03518V4.03529H10.193V0Z" fill="black"/>
<path id="Vector_8" d="M15.0946 0H16.3629V2.7015H18.146V4.03529H15.0945V0H15.0946Z" fill="black"/>
<path id="Vector_9" d="M9.99141 18.3302H13.0638L12.7741 21.7723L9.99133 22.5712V25.3324L15.1064 23.8245L15.1439 23.3761L15.7303 16.3888L15.7912 15.6761H9.99141V18.3302Z" fill="white"/>
<path id="Vector_10" d="M9.99146 12.9519V12.9583H16.0183L16.0683 12.3618L16.182 11.0163L16.2416 10.3043H9.99146V12.9519V12.9519Z" fill="white"/>
</g>
</g>
</svg>
