<svg width="20" height="23" viewBox="0 0 20 23" fill="none" xmlns="http://www.w3.org/2000/svg">
<g id="Javascript">
<path id="Vector" d="M0 1C0 0.447715 0.447715 0 1 0H19C19.5523 0 20 0.447715 20 1V22C20 22.5523 19.5523 23 19 23H1C0.447716 23 0 22.5523 0 22V1Z" fill="#F7DF1E"/>
<path id="Vector_2" d="M5.00008 18.9566L6.63252 17.8551C6.9475 18.4776 7.23399 19.0044 7.92121 19.0044C8.57993 19.0044 8.99533 18.7172 8.99533 17.5997V10H11V17.6313C11 19.9462 9.78288 21 8.00713 21C6.40344 21 5.47256 20.074 5 18.9564" fill="black"/>
<path id="Vector_3" d="M12.0001 18.7431L13.4045 17.7015C13.7742 18.4749 14.2547 19.043 15.1047 19.043C15.8195 19.043 16.2752 18.5853 16.2752 17.954C16.2752 17.1965 15.807 16.9282 15.0185 16.4864L14.5874 16.2495C13.3429 15.5711 12.5175 14.7188 12.5175 12.9197C12.5175 11.2626 13.5031 10 15.0432 10C16.1398 10 16.9283 10.4893 17.495 11.7676L16.1519 12.8724C15.8562 12.1938 15.536 11.9256 15.0432 11.9256C14.538 11.9256 14.2176 12.3359 14.2176 12.8724C14.2176 13.5352 14.538 13.8037 15.2772 14.214L15.7084 14.4507C17.1746 15.2556 18 16.0762 18 17.9225C18 19.9112 16.7803 21 15.1417 21C13.54 21 12.5051 20.0216 12 18.7432" fill="black"/>
</g>
</svg>
