<svg
  width="20"
  height="30"
  viewBox="0 0 20 30"
  fill="none"
  xmlns="http://www.w3.org/2000/svg"
>
<g id="js">
<g id="logos:javascript">
<path id="Vector" d="M0 0H20V30H0V0Z" fill="#F7DF1E" />
<path
        id="Vector_2"
        d="M5.25875 25.0702L6.78921 23.6808C7.08453 24.4661 7.35312 25.1305 7.99742 25.1305C8.615 25.1305 9.00445 24.7682 9.00445 23.3587V13.7729H10.8839V23.3985C10.8839 26.3185 9.74281 27.6476 8.07796 27.6476C6.57445 27.6476 5.70171 26.4796 5.25867 25.0699"
        fill="black"
      />
<path
        id="Vector_3"
        d="M11.9047 24.768L13.4351 23.439C13.8379 24.4258 14.3615 25.1507 15.2878 25.1507C16.0666 25.1507 16.5632 24.5667 16.5632 23.7611C16.5632 22.7946 16.053 22.4521 15.1938 21.8885L14.724 21.5861C13.368 20.7205 12.4686 19.633 12.4686 17.3373C12.4686 15.2227 13.5426 13.6116 15.2208 13.6116C16.4156 13.6116 17.2748 14.236 17.8923 15.8671L16.4289 17.2769C16.1066 16.411 15.7577 16.0687 15.2207 16.0687C14.6702 16.0687 14.3211 16.5923 14.3211 17.2769C14.3211 18.1226 14.6702 18.4652 15.4757 18.9888L15.9455 19.2908C17.5432 20.3179 18.4426 21.365 18.4426 23.7209C18.4426 26.2585 17.1136 27.6479 15.328 27.6479C13.5828 27.6479 12.4551 26.3994 11.9047 24.7681"
        fill="black"
      />
</g>
</g>
</svg>
