<svg width="24" height="24" viewBox="0 0 24 24" fill="none" xmlns="http://www.w3.org/2000/svg">
<path id="Vector" d="M23.3906 23.8548H18.5156C18.3438 23.8548 18.1953 23.7944 18.0703 23.6734C17.9453 23.5524 17.8828 23.4032 17.8828 23.2258V15.121C17.8828 14.5887 17.832 14.1371 17.7305 13.7661C17.6289 13.3952 17.5117 13.121 17.3789 12.9436C17.2461 12.7661 17.0781 12.625 16.875 12.5202C16.6719 12.4153 16.5195 12.3589 16.418 12.3508C16.3164 12.3427 16.1875 12.3387 16.0312 12.3387C15.6562 12.3387 15.3203 12.4355 15.0234 12.629C14.7266 12.8226 14.5195 13.0121 14.4023 13.1976C14.2852 13.3831 14.1875 13.5726 14.1094 13.7661C14.0781 13.8629 14.0508 13.996 14.0273 14.1653C14.0039 14.3347 13.9922 14.5323 13.9922 14.7581V23.2258C13.9922 23.4032 13.9297 23.5565 13.8047 23.6855C13.6797 23.8145 13.5312 23.879 13.3594 23.879H8.48438C8.40625 23.879 8.32812 23.8629 8.25 23.8306C8.17188 23.7984 8.10156 23.75 8.03906 23.6855C7.91406 23.5565 7.85938 23.4032 7.875 23.2258V21L7.88672 18.75L7.89844 16.1371V11.0323L7.88672 9.14516L7.875 8.10484C7.85938 7.92742 7.91406 7.77016 8.03906 7.63307C8.16406 7.49597 8.3125 7.42742 8.48438 7.42742H13.3594C13.4531 7.42742 13.5391 7.44355 13.6172 7.47581C13.6953 7.50807 13.7617 7.55242 13.8164 7.60887C13.8711 7.66533 13.9141 7.73387 13.9453 7.81452C13.9766 7.89516 13.9922 7.98387 13.9922 8.08065V8.44355C14.9922 7.5242 16.25 7.06452 17.7656 7.06452C19.7188 7.06452 21.2461 7.72581 22.3477 9.04839C23.4492 10.371 24 12.2016 24 14.5403V23.2258C24 23.3065 23.9844 23.3871 23.9531 23.4677C23.9219 23.5484 23.8789 23.6169 23.8242 23.6734C23.7695 23.7298 23.7031 23.7742 23.625 23.8065C23.5469 23.8387 23.4688 23.8548 23.3906 23.8548ZM19.125 22.5726H22.7578V14.5403C22.7578 12.5726 22.3242 11.0524 21.457 9.97984C20.5898 8.90726 19.3594 8.37097 17.7656 8.37097C16.1406 8.37097 14.875 9.06452 13.9688 10.4516C13.8906 10.7581 13.6953 10.9113 13.3828 10.9113H13.3359C13.1016 10.9113 12.9219 10.7984 12.7969 10.5726C12.7031 10.4113 12.6875 10.2419 12.75 10.0645V8.70968H9.11719C9.14844 10.5 9.14844 15.121 9.11719 22.5726H12.75V14.7581C12.75 14.129 12.8203 13.6371 12.9609 13.2823C13.0703 13.0081 13.2031 12.754 13.3594 12.5202C13.5156 12.2863 13.6914 12.0766 13.8867 11.8911C14.082 11.7056 14.293 11.5524 14.5195 11.4315C14.7461 11.3105 14.9883 11.2137 15.2461 11.1411C15.5039 11.0686 15.7656 11.0323 16.0312 11.0323C16.6875 11.0323 17.2461 11.1936 17.707 11.5161C18.168 11.8387 18.5195 12.3024 18.7617 12.9073C19.0039 13.5121 19.125 14.25 19.125 15.121V22.5726ZM5.78906 23.8548H0.914062C0.742188 23.8548 0.59375 23.7944 0.46875 23.6734C0.34375 23.5524 0.28125 23.4032 0.28125 23.2258V8.08065C0.28125 7.90323 0.34375 7.75 0.46875 7.62097C0.59375 7.49194 0.742188 7.42742 0.914062 7.42742H5.78906C5.96094 7.42742 6.10938 7.49194 6.23438 7.62097C6.35938 7.75 6.42188 7.90323 6.42188 8.08065V23.2258C6.42188 23.3387 6.39453 23.4436 6.33984 23.5403C6.28516 23.6371 6.20703 23.7137 6.10547 23.7702C6.00391 23.8266 5.89844 23.8548 5.78906 23.8548ZM1.54688 22.5726H5.17969V8.70968H1.54688V22.5726ZM3.35156 6.65323H3.32812C2.35938 6.65323 1.5625 6.34275 0.9375 5.72178C0.3125 5.10081 0 4.31855 0 3.375C0 2.43146 0.320312 1.65323 0.960938 1.04033C1.60156 0.427423 2.41406 0.120972 3.39844 0.120972C4.35156 0.120972 5.14062 0.423391 5.76562 1.02823C6.39062 1.63307 6.71094 2.41129 6.72656 3.36291C6.72656 4.31452 6.41016 5.10081 5.77734 5.72178C5.14453 6.34275 4.33594 6.65323 3.35156 6.65323ZM3.39844 1.40323C2.75781 1.40323 2.23828 1.58468 1.83984 1.94758C1.44141 2.31049 1.24219 2.79033 1.24219 3.3871C1.24219 3.96775 1.4375 4.44355 1.82812 4.81452C2.21875 5.18549 2.71875 5.37097 3.32812 5.37097H3.35156C3.77344 5.37097 4.14453 5.28629 4.46484 5.11694C4.78516 4.94758 5.03516 4.71371 5.21484 4.41533C5.39453 4.11694 5.48438 3.7742 5.48438 3.3871C5.46875 2.79033 5.27344 2.31049 4.89844 1.94758C4.52344 1.58468 4.02344 1.40323 3.39844 1.40323Z" fill="white"/>
</svg>
