<svg width="20" height="30" viewBox="0 0 20 30" fill="none" xmlns="http://www.w3.org/2000/svg">
<g id="mongodb">
<path id="Vector" fill-rule="evenodd" clip-rule="evenodd" d="M11.0163 30L9.82735 29.7271C9.82735 29.7271 9.97255 25.6558 7.79709 25.3637C6.3473 24.2336 8.02966 -22.5583 13.2499 25.2077C13.2499 25.2077 11.4516 25.8114 11.1326 26.8441C10.7843 27.8571 11.0163 30 11.0163 30Z" fill="white"/>
<path id="Vector_2" fill-rule="evenodd" clip-rule="evenodd" d="M11.0163 30L9.82735 29.7271C9.82735 29.7271 9.97255 25.6558 7.79709 25.3637C6.3473 24.2336 8.02966 -22.5583 13.2499 25.2077C13.2499 25.2077 11.4516 25.8114 11.1326 26.8441C10.7843 27.8571 11.0163 30 11.0163 30Z" fill="#A6A385"/>
<path id="Vector_3" fill-rule="evenodd" clip-rule="evenodd" d="M11.655 26.0649C11.655 26.0649 22.0672 21.4674 19.6306 11.9023C17.2816 4.94812 11.7421 2.6689 11.133 1.79221C10.4661 1.16884 9.82776 0.0780945 9.82776 0.0780945L10.263 19.4218C10.263 19.4415 9.36388 25.344 11.6553 26.0651" fill="white"/>
<path id="Vector_4" fill-rule="evenodd" clip-rule="evenodd" d="M11.655 26.0649C11.655 26.0649 22.0672 21.4674 19.6306 11.9023C17.2816 4.94812 11.7421 2.6689 11.133 1.79221C10.4661 1.16884 9.82776 0.0780945 9.82776 0.0780945L10.263 19.4218C10.263 19.4415 9.36388 25.344 11.6553 26.0651" fill="#499D4A"/>
<path id="Vector_5" fill-rule="evenodd" clip-rule="evenodd" d="M9.21887 26.318C9.21887 26.318 -0.555324 21.8374 0.0248422 13.9481C0.57578 6.05851 7.47837 2.18191 8.8125 1.48064C9.68275 0.857269 9.71166 0.623372 9.76981 0C10.3789 0.87669 10.2629 13.1104 10.3497 14.5518C10.6105 20.1037 9.88578 25.2663 9.21887 26.318Z" fill="white"/>
<path id="Vector_6" fill-rule="evenodd" clip-rule="evenodd" d="M9.21887 26.318C9.21887 26.318 -0.555324 21.8374 0.0248422 13.9481C0.57578 6.05851 7.47837 2.18191 8.8125 1.48064C9.68275 0.857269 9.71166 0.623372 9.76981 0C10.3789 0.87669 10.2629 13.1104 10.3497 14.5518C10.6105 20.1037 9.88578 25.2663 9.21887 26.318Z" fill="#58AA50"/>
</g>
</svg>
