<svg
  width="30"
  height="30"
  viewBox="0 0 30 30"
  fill="none"
  xmlns="http://www.w3.org/2000/svg"
>
<g id="next">
<g id="cib:next" clip-path="url(#clip0)">
<path
        id="Vector"
        d="M22.2647 28.1299C22.1531 28.1889 22.1625 28.2077 22.2694 28.1533C22.3023 28.1399 22.3325 28.1205 22.3584 28.0961C22.3584 28.0764 22.3584 28.0764 22.2647 28.1299ZM22.4897 28.008C22.4363 28.0521 22.4363 28.0521 22.5 28.023C22.5236 28.012 22.5451 27.9971 22.5638 27.9789C22.5638 27.9536 22.5487 27.9592 22.4897 28.008ZM22.6359 27.9199C22.5825 27.9639 22.5825 27.9639 22.6462 27.9349C22.6699 27.9236 22.6915 27.9084 22.71 27.8899C22.71 27.8664 22.695 27.8711 22.6359 27.9199ZM22.7841 27.8327C22.7306 27.8767 22.7306 27.8767 22.7925 27.8467C22.8272 27.828 22.8562 27.8083 22.8562 27.8027C22.8562 27.7792 22.8412 27.7839 22.7841 27.8327ZM22.9838 27.7005C22.8816 27.7689 22.8459 27.813 22.9397 27.7642C23.0025 27.7258 23.1094 27.6414 23.0906 27.6414C23.0503 27.6564 23.0166 27.6817 22.9828 27.7005H22.9838ZM14.0184 0.0104917C13.95 0.0151792 13.7447 0.0339292 13.5647 0.0489292C9.30094 0.435179 5.31188 2.73018 2.78344 6.26549C1.38615 8.20448 0.477898 10.4523 0.135937 12.8177C0.015 13.6427 0 13.8864 0 15.0049C0 16.1224 0.015 16.3624 0.135937 17.1874C0.9525 22.8227 4.96125 27.5533 10.395 29.3064C11.3728 29.6186 12.3975 29.8342 13.5647 29.9664C14.0184 30.0152 15.9806 30.0152 16.4344 29.9664C18.4519 29.7414 20.1553 29.2436 21.8409 28.3839C22.0997 28.2527 22.1484 28.218 22.1137 28.1889C21.2915 27.102 20.4761 26.0098 19.6678 24.9124L17.2706 21.6752L14.2678 17.2267C13.269 15.7373 12.2599 14.2548 11.2406 12.7792C11.2303 12.7792 11.2172 14.7564 11.2116 17.1677C11.2013 21.3911 11.2013 21.5627 11.1478 21.6602C11.0966 21.778 11.0048 21.8734 10.8891 21.9292C10.7962 21.9733 10.7128 21.9827 10.2694 21.9827H9.76219L9.63 21.9002C9.54721 21.8471 9.47993 21.773 9.435 21.6855L9.37125 21.5533L9.37594 15.6742L9.38625 9.79518L9.47906 9.67799C9.53834 9.60594 9.61131 9.54636 9.69375 9.50268C9.81656 9.44362 9.86531 9.43424 10.3725 9.43424C10.9678 9.43424 11.0662 9.45768 11.2228 9.62924C12.4392 11.4385 13.6452 13.2548 14.8406 15.078C16.7897 18.033 19.4503 22.0652 20.7581 24.0433L23.1366 27.6424L23.2537 27.5646C24.3968 26.805 25.4326 25.8953 26.3334 24.8599C28.223 22.6971 29.4491 20.0356 29.865 17.1939C29.9859 16.3689 30.0009 16.1242 30.0009 15.0067C30.0009 13.8883 29.9859 13.6492 29.865 12.8242C29.0484 7.18893 25.0397 2.4583 19.6059 0.704242C18.5904 0.382605 17.5452 0.163696 16.4859 0.0508042C16.2019 0.0217417 14.2631 -0.0129458 14.0194 0.0123667L14.0184 0.0104917ZM20.1562 9.08268C20.226 9.11693 20.2882 9.16476 20.3392 9.22335C20.3903 9.28195 20.4291 9.35014 20.4534 9.42393C20.4788 9.50268 20.4834 11.133 20.4788 14.8052L20.4684 20.0777L19.5413 18.6527L18.6084 17.2267V13.3989C18.6084 10.9174 18.6187 9.52612 18.6319 9.45768C18.6778 9.30076 18.783 9.16791 18.9253 9.08737C19.0416 9.0283 19.0866 9.02362 19.5506 9.02362C19.9847 9.02362 20.0578 9.0283 20.1553 9.08268H20.1562Z"
        fill="black"
      />
</g>
</g>
<defs>
<clipPath id="clip0">
<rect width="30" height="30" fill="white" />
</clipPath>
</defs>
</svg>
