<svg
  width="30"
  height="30"
  viewBox="0 0 30 30"
  fill="none"
  xmlns="http://www.w3.org/2000/svg"
>
<path
    id="node"
    d="M14.9933 30C14.5434 30 14.0868 29.8928 13.6907 29.6904L9.5479 27.5176C8.93017 27.2081 9.23232 27.1009 9.43375 27.0414C10.2596 26.7854 10.4275 26.7318 11.3071 26.2853C11.4011 26.2377 11.5219 26.2556 11.6159 26.3092L14.7986 27.9819C14.9127 28.0415 15.0739 28.0415 15.1813 27.9819L27.5828 21.6361C27.697 21.5765 27.7708 21.4575 27.7708 21.3384V8.64669C27.7708 8.52168 27.697 8.40857 27.5761 8.34309L15.1813 2.00318C15.0671 1.94365 14.9127 1.94365 14.7986 2.00318L2.41047 8.34904C2.28962 8.40857 2.21576 8.52763 2.21576 8.65264V21.3384C2.21576 21.4575 2.28962 21.5765 2.41047 21.6301L5.80797 23.3684C7.65443 24.1839 8.78245 23.2255 8.78245 22.2552V9.73013C8.78245 9.55154 8.9436 9.41462 9.14503 9.41462H10.7162C10.9109 9.41462 11.0788 9.55154 11.0788 9.73013V22.2611C11.0788 24.4399 9.7359 25.6901 7.406 25.6901C6.68756 25.6901 6.12355 25.69 4.55237 24.9995L1.3026 23.3386C0.496867 22.9279 0 22.1599 0 21.3325V8.64669C0 7.82518 0.496867 7.05129 1.3026 6.64054L13.6907 0.294672C14.4763 -0.098224 15.517 -0.098224 16.2959 0.294672L28.6974 6.64649C29.5031 7.05725 30 7.82518 30 8.65264V21.3384C30 22.1599 29.5031 22.9279 28.6974 23.3446L16.2959 29.6904C15.8997 29.8928 15.4499 30 14.9933 30ZM25.0045 17.4928C25.0045 15.1176 23.1916 14.4866 19.3845 14.0401C15.5304 13.5877 15.141 13.3555 15.141 12.5578C15.141 11.897 15.47 11.016 18.3236 11.016C20.8684 11.016 21.8084 11.5041 22.1979 13.0281C22.2314 13.1709 22.3791 13.2781 22.547 13.2781H24.1585C24.2592 13.2781 24.3532 13.2424 24.4203 13.1769C24.4875 13.1114 24.521 13.0221 24.5143 12.9328C24.2659 10.3076 22.2986 9.08721 18.3236 9.08721C14.7851 9.08721 12.6768 10.4088 12.6768 12.6292C12.6768 15.0342 14.7784 15.701 18.1692 15.9986C22.2314 16.3498 22.547 16.8797 22.547 17.5881C22.547 18.8144 21.4324 19.3382 18.8205 19.3382C15.5372 19.3382 14.8187 18.606 14.577 17.1594C14.5501 17.0047 14.4024 16.8916 14.2211 16.8916H12.6164C12.415 16.8916 12.2605 17.0344 12.2605 17.2071C12.2605 19.0584 13.3953 21.267 18.8272 21.267C22.7484 21.261 25.0045 19.8859 25.0045 17.4928Z"
    fill="#20FF0C"
  />
</svg>
