<svg width="25" height="24" viewBox="0 0 25 24" fill="none" xmlns="http://www.w3.org/2000/svg">
<path id="Vector" d="M24.6293 0.226723C24.8557 0.410056 25 0.688055 25 1.00005V9.00004C25 9.26525 24.8935 9.51961 24.7039 9.70714C24.5143 9.89468 24.2572 10 23.9891 10C23.721 10 23.4638 9.89468 23.2743 9.70714C23.0847 9.51961 22.9782 9.26525 22.9782 9.00004V3.41405L16.6163 9.70737C16.523 9.80283 16.4114 9.87896 16.2881 9.93131C16.1647 9.98366 16.032 10.0112 15.8978 10.0123C15.7636 10.0134 15.6305 9.98801 15.5063 9.93767C15.3821 9.88733 15.2692 9.81302 15.1744 9.71909C15.0795 9.62515 15.0045 9.51346 14.9537 9.39054C14.9029 9.26763 14.8774 9.13593 14.8787 9.00316C14.8799 8.87038 14.9078 8.73917 14.9609 8.61719C15.0139 8.49522 15.091 8.38491 15.1876 8.2927L21.5474 2.00005H15.9019C15.6338 2.00005 15.3767 1.8947 15.1871 1.70716C14.9975 1.51962 14.891 1.26527 14.891 1.00005C14.891 0.734839 14.9975 0.480485 15.1871 0.292949C15.3767 0.105413 15.6338 5.69198e-05 15.9019 5.69198e-05H23.9763C24.2143 -0.00244762 24.4456 0.0777706 24.63 0.226723H24.6293ZM5.11906 2.00005C4.49348 2.00005 3.89353 2.24588 3.45117 2.68347C3.00882 3.12105 2.76031 3.71454 2.76031 4.33338V19.6667C2.76031 20.2855 3.00882 20.879 3.45117 21.3166C3.89353 21.7542 4.49348 22 5.11906 22H20.6194C21.245 22 21.845 21.7542 22.2873 21.3166C22.7297 20.879 22.9782 20.2855 22.9782 19.6667V14.3334C22.9782 14.0681 23.0847 13.8138 23.2743 13.6263C23.4638 13.4387 23.721 13.3334 23.9891 13.3334C24.2572 13.3334 24.5143 13.4387 24.7039 13.6263C24.8935 13.8138 25 14.0681 25 14.3334V19.6667C25 20.8159 24.5384 21.9181 23.7169 22.7308C22.8954 23.5435 21.7812 24 20.6194 24H5.11906C3.95727 24 2.84307 23.5435 2.02156 22.7308C1.20004 21.9181 0.738525 20.8159 0.738525 19.6667V4.33338C0.738525 3.18411 1.20004 2.08191 2.02156 1.26926C2.84307 0.456602 3.95727 5.69198e-05 5.11906 5.69198e-05H10.5105C10.7786 5.69198e-05 11.0357 0.105413 11.2253 0.292949C11.4149 0.480485 11.5214 0.734839 11.5214 1.00005C11.5214 1.26527 11.4149 1.51962 11.2253 1.70716C11.0357 1.8947 10.7786 2.00005 10.5105 2.00005H5.11906Z" fill="#CFCFCF"/>
</svg>
