<svg width="30" height="30" viewBox="0 0 30 30" fill="none" xmlns="http://www.w3.org/2000/svg">
<path id="redux" d="M20.7868 20.9518C21.8939 20.831 22.7338 19.8257 22.6956 18.6192C22.6575 17.4129 21.703 16.4477 20.5577 16.4477H20.4814C19.2978 16.4879 18.3817 17.5335 18.4199 18.7801C18.4581 19.3833 18.6871 19.9061 19.0307 20.268C17.7327 22.9625 15.7475 24.9329 12.7698 26.5817C10.7464 27.7077 8.64679 28.1099 6.54715 27.8285C4.82918 27.5871 3.49301 26.7829 2.65301 25.4557C1.43144 23.4852 1.31695 21.3538 2.34773 19.2225C3.07312 17.6943 4.21828 16.5683 4.94367 16.0053C4.79097 15.4825 4.56187 14.5978 4.44738 13.9545C-1.0882 18.177 -0.515509 23.8874 1.16426 26.5817C2.42402 28.5925 4.98187 29.8392 7.80691 29.8392C8.57039 29.8392 9.33386 29.7587 10.0975 29.5577C14.9841 28.5523 18.6872 25.4959 20.7868 20.9518ZM27.5059 15.9652C24.6044 12.386 20.3287 10.4156 15.4421 10.4156H14.8314C14.4878 9.69173 13.7624 9.20908 12.9607 9.20908H12.8843C11.7009 9.24932 10.7848 10.2949 10.8228 11.5416C10.8611 12.748 11.8154 13.7131 12.9607 13.7131H13.037C13.8769 13.6729 14.6023 13.1099 14.9077 12.3458H15.5948C18.4963 12.3458 21.2449 13.2305 23.7265 14.9598C25.6352 16.2869 27.0096 18.0161 27.7731 20.1072C28.4221 21.7962 28.3839 23.445 27.6967 24.8526C26.6278 26.9839 24.8335 28.1501 22.4666 28.1501C20.9395 28.1501 19.4889 27.6675 18.7253 27.3056C18.3054 27.7077 17.5418 28.3511 17.0073 28.7534C18.649 29.5576 20.3287 30 21.9321 30C25.597 30 28.3076 27.8686 29.3384 25.7373C30.4454 23.4048 30.369 19.3833 27.5059 15.9652ZM8.1123 21.6352C8.15051 22.8417 9.10488 23.8068 10.2502 23.8068H10.3266C11.51 23.7667 12.4262 22.721 12.388 21.4744C12.3499 20.2679 11.3954 19.3029 10.2502 19.3029H10.1739C10.0975 19.3029 9.98285 19.3029 9.90668 19.343C8.3414 16.6084 7.69242 13.6327 7.92152 10.4155C8.0741 8.00258 8.83769 5.9114 10.1739 4.18213C11.2809 2.69419 13.4188 1.97034 14.8696 1.93022C18.9162 1.84974 20.634 7.15801 20.7486 9.28944C21.2449 9.41004 22.0848 9.69161 22.6575 9.89269C22.1993 3.37805 18.3817 0 14.7169 0C11.2809 0 8.1123 2.61396 6.85242 6.47453C5.09636 11.622 6.24164 16.5683 8.37949 20.4691C8.18871 20.7506 8.0741 21.193 8.1123 21.6354V21.6352Z" fill="#764ABC"/>
</svg>
