<svg width="30" height="30" viewBox="0 0 30 30" fill="none" xmlns="http://www.w3.org/2000/svg">
<path id="sass" d="M25.8323 17.2459C24.7858 17.2531 23.8761 17.5892 23.1145 18.0861C22.835 17.3481 22.5555 16.6906 22.5063 16.2082C22.4514 15.6457 22.3857 15.3022 22.4514 14.63C22.5172 13.9578 22.8131 13.0005 22.8076 12.9275C22.8022 12.8545 22.7418 12.511 22.1391 12.5038C21.5363 12.4964 21.0158 12.6572 20.9555 12.8691C20.8952 13.0809 20.7802 13.5632 20.7034 14.06C20.5993 14.7908 19.498 17.3991 18.8679 18.7655C18.6651 18.2323 18.4897 17.7645 18.4513 17.3919C18.3965 16.8294 18.3307 16.4859 18.3965 15.8137C18.4623 15.1415 18.7582 14.1844 18.7527 14.1112C18.7472 14.0382 18.6869 13.6947 18.0842 13.6875C17.4814 13.6801 16.9608 13.8409 16.9006 14.0527C16.8403 14.2648 16.7745 14.7615 16.6486 15.2438C16.5225 15.7261 15.0594 20.081 14.6759 21.206C14.5209 21.6614 14.3583 22.1121 14.1882 22.5579C14.1882 22.5579 14.1827 22.5798 14.1662 22.6163C14.1128 22.7561 14.058 22.8949 14.0019 23.0328V23.04C13.9197 23.2374 13.832 23.42 13.7882 23.42C13.7553 23.42 13.695 22.894 13.7991 22.1779C14.0183 20.6654 14.5389 18.3127 14.5335 18.2323C14.5335 18.1884 14.632 17.7793 14.1937 17.5673C13.7662 17.3554 13.6129 17.7061 13.5744 17.7061C13.5361 17.7061 13.5086 17.8304 13.5086 17.8304C13.5086 17.8304 13.9855 15.1853 12.5991 15.1853C11.7334 15.1853 10.5388 16.4494 9.94696 17.5892C9.27422 18.0774 8.60205 18.5669 7.93046 19.0579C7.6073 19.2991 7.27298 19.5402 6.96063 19.7666C6.93865 19.7375 6.9168 19.7008 6.89482 19.6717C5.21804 17.2824 2.11667 15.5945 2.24816 12.3869C2.29752 11.2178 2.59882 8.14893 8.20449 4.42256C12.8182 1.39019 16.4897 2.23039 17.1253 4.09365C18.0348 6.7534 15.1581 11.6928 10.3908 12.4087C8.5716 12.6792 7.61811 11.7438 7.37709 11.3932C7.12503 11.0277 7.0866 11.0058 6.99341 11.079C6.84006 11.1887 6.93865 11.5174 6.99341 11.7073C7.13596 12.2041 7.72222 13.0809 8.71402 13.5121C9.59078 13.892 11.7223 14.104 14.3032 12.7741C17.191 11.2835 19.4486 7.1406 18.7856 3.66995C18.1225 0.148062 13.7388 -1.01368 9.59078 0.951753C7.12503 2.12101 4.45092 3.96219 2.52761 6.35884C0.242586 9.20835 -0.119115 11.6854 0.0288321 12.723C0.560456 16.4055 4.36878 18.8022 5.89209 20.5777C5.81536 20.6361 5.74403 20.6874 5.68386 20.7313C4.92215 21.2354 2.01796 23.2592 1.29467 25.4002C0.472792 27.826 1.42628 29.5651 2.05638 29.7988C4.01261 30.5222 6.02359 29.2216 7.10305 27.0734C8.18252 24.9252 8.05102 22.134 7.55242 20.8554C7.5469 20.8408 7.54149 20.8261 7.53044 20.8115C7.72775 20.6581 7.93046 20.4973 8.12776 20.3439C8.49038 20.0581 8.85762 19.7827 9.2292 19.5181C9.04282 20.1977 8.9058 21.0088 8.84011 22.1779C8.75786 23.5516 9.17972 25.3343 9.73321 26.0357C9.97986 26.3428 10.2702 26.35 10.4566 26.35C11.1032 26.35 11.3937 25.6339 11.7169 24.7864C12.1114 23.7489 12.4676 22.5433 12.4676 22.5433C12.4676 22.5433 12.0237 25.8021 13.2293 25.8021C13.6676 25.8021 14.1115 25.0421 14.3088 24.6549V24.6621C14.3088 24.6621 14.3197 24.6402 14.3417 24.5891C14.3855 24.4941 14.4129 24.4355 14.4129 24.4355V24.4211C14.5882 24.0118 14.9828 23.0839 15.5691 21.5422C16.3253 19.5548 17.0541 17.0705 17.0541 17.0705C17.0541 17.0705 17.1199 17.677 17.3445 18.6853C17.4761 19.2771 17.7499 19.9274 17.9692 20.5558C17.7938 20.8847 17.6842 21.0672 17.6842 21.0672L17.6897 21.0746C17.5472 21.3229 17.3938 21.5932 17.2239 21.8565C16.6266 22.8062 15.9143 23.8951 15.8156 24.2091C15.7005 24.5817 15.728 24.8522 15.9472 25.0714C16.1061 25.2322 16.391 25.254 16.6815 25.2322C17.2185 25.1809 17.5965 25.0056 17.7828 24.8961C18.0733 24.7572 18.413 24.5452 18.7307 24.2311C19.3171 23.6538 19.6732 22.8282 19.6404 21.7396C19.624 21.1404 19.476 20.5412 19.2952 19.9785C19.35 19.8763 19.3993 19.774 19.4541 19.6717C20.3801 17.8669 21.098 15.8867 21.098 15.8867C21.098 15.8867 21.1638 16.4931 21.3884 17.5016C21.498 18.0131 21.7227 18.5684 21.9199 19.109C21.0487 20.0517 20.5116 21.1476 20.3199 21.8637C19.9747 23.1936 20.2431 23.7926 20.7528 23.9314C20.9829 23.9973 21.3117 23.8511 21.5528 23.7122C21.8596 23.5808 22.2213 23.3543 22.5666 23.0181C23.153 22.441 23.7172 21.6371 23.6843 20.5486C23.6679 20.0517 23.5693 19.562 23.4323 19.0871C24.172 18.6781 25.1255 18.4515 26.3419 18.6414C28.9503 19.0505 29.4653 21.2206 29.3666 22.1342C29.268 23.0474 28.7201 23.5443 28.5394 23.6977C28.3584 23.8512 28.2982 23.9023 28.3147 24.0118C28.3365 24.1726 28.4242 24.1654 28.5777 24.1361C28.7914 24.085 29.9476 23.3981 29.9969 21.7175C30.0791 19.5694 28.5448 17.2239 25.8323 17.2459ZM5.71124 26.2916C4.84541 27.5483 3.63998 28.0232 3.1194 27.6215C2.56051 27.1902 2.77967 25.3343 3.84268 24.0046C4.48923 23.1936 5.32216 22.4408 5.87564 21.9806C6.00161 21.8783 6.18799 21.7322 6.41267 21.5495C6.45098 21.5202 6.47295 21.5057 6.47295 21.5057L6.60445 21.396C6.99341 23.2957 6.6209 24.9691 5.71124 26.2916ZM12.0128 20.5777C11.7114 21.5569 11.0813 24.0631 10.6977 23.9242C10.3689 23.8074 10.1661 21.9076 10.6319 20.0297C10.8675 19.0871 11.3662 17.9618 11.6566 17.5236C12.1279 16.822 12.6484 16.5881 12.7744 16.8733C12.9334 17.2459 12.1991 19.9639 12.0128 20.5777ZM17.213 23.8949C17.0869 23.9827 16.9664 24.0411 16.9115 23.9973C16.8732 23.968 16.9664 23.8511 16.9664 23.8511C16.9664 23.8511 17.6185 22.9159 17.876 22.492C18.024 22.2437 18.1992 21.9515 18.3856 21.6225V21.7175C18.3856 22.8355 17.5745 23.5881 17.2128 23.8949H17.213ZM21.224 22.6748C21.1308 22.587 21.1473 22.2948 21.4596 21.3814C21.5802 21.0233 21.865 20.4243 22.3528 19.847C22.4076 20.0808 22.446 20.3074 22.4405 20.5193C22.435 21.9295 21.6789 22.4555 21.224 22.6748Z" fill="#CD6799"/>
</svg>
