<svg width="30" height="30" viewBox="0 0 30 30" fill="none" xmlns="http://www.w3.org/2000/svg">
<g id="styled-components">
<g id="vscode-icons:file-type-styled">
<path id="Vector" d="M16.9219 27.75C16.9612 27.6609 17.0606 27.599 17.1328 27.524C18.2344 26.369 19.3453 25.2244 20.4319 24.0553C20.7719 23.7413 21.0346 23.3528 21.1995 22.9204C21.3644 22.4879 21.4271 22.0232 21.3825 21.5625C21.3484 21.3652 21.3036 21.1699 21.2484 20.9775C20.9522 21.2587 20.6765 21.5147 20.399 21.7725C19.9678 22.1737 19.5384 22.5769 19.1034 22.9734C18.8469 23.2349 18.5171 23.4125 18.1576 23.4826C17.798 23.5528 17.4257 23.5122 17.0897 23.3662C16.7495 23.2413 16.4536 23.0192 16.2386 22.7275C16.0236 22.4359 15.899 22.0875 15.8803 21.7256C15.8702 21.6791 15.8567 21.6333 15.84 21.5887C15.509 21.87 15.1922 22.1287 14.8781 22.395L8.35029 27.9262C8.30529 27.9647 8.25654 28.0125 8.21436 28.05H16.9172L16.904 28.0415C16.8572 28.0087 16.8815 27.8362 16.9219 27.75Z" fill="#FFCEBF"/>
<path id="Vector_2" d="M7.81595 27.75C7.89336 27.6492 7.98679 27.5618 8.09251 27.4913L17.1263 19.8272C17.7425 19.3041 18.3559 18.7782 18.9666 18.2494C19.042 18.1968 19.1011 18.124 19.1372 18.0394C19.2833 17.4029 19.304 16.7441 19.1981 16.0997C19.1044 16.1654 19.0538 16.1935 19.0106 16.2394C18.2709 16.9013 17.535 17.5688 16.7916 18.2269C16.5453 18.4748 16.2268 18.6382 15.8818 18.6936C15.5368 18.749 15.1831 18.6936 14.8716 18.5354C14.5538 18.3853 14.2878 18.1441 14.1075 17.8424C13.9272 17.5408 13.8407 17.1923 13.8591 16.8413V16.5375C13.7231 16.6369 13.6238 16.7035 13.5309 16.7785C9.91532 19.6735 6.30032 22.5663 2.68595 25.4569C2.52282 25.5872 2.32782 25.8779 2.11407 25.5957C1.90032 25.3135 2.22563 25.1972 2.3897 25.066C6.24282 21.9741 10.0978 18.885 13.9547 15.7988C14.5828 15.2954 14.6241 15.0844 14.2153 14.2847L13.9716 14.5135C13.3031 15.135 12.6272 15.7482 11.9691 16.38C11.6991 16.6404 11.361 16.8192 10.9938 16.8956C10.6266 16.972 10.2452 16.943 9.89379 16.812C9.54235 16.6809 9.23515 16.4531 9.00766 16.1549C8.78016 15.8567 8.64166 15.5002 8.60814 15.1266C8.48345 15.2204 8.37563 15.2888 8.27345 15.3685L2.5547 19.801C2.45606 19.8977 2.34358 19.9792 2.22095 20.0429C2.12839 20.0708 2.029 20.0659 1.9397 20.0288V28.0547H7.8047C7.78289 28.0065 7.77256 27.9539 7.77451 27.9011C7.77646 27.8482 7.79065 27.7965 7.81595 27.75Z" fill="#FFCEBF"/>
<path id="Vector_3" d="M23.6597 2.27153C23.5003 2.79372 23.3457 3.31684 23.206 3.84466C23.0769 4.21765 23.092 4.62539 23.2481 4.98789C23.4042 5.35039 23.6901 5.64147 24.0497 5.80403C25.1498 6.38228 26.3894 6.64203 27.6291 6.55403V2.36059C27.6153 2.26865 27.6204 2.17487 27.6441 2.08497C27.6704 2.03412 27.7035 1.98711 27.7425 1.94528H23.656C23.7188 2.01841 23.6972 2.14684 23.6597 2.27153Z" fill="#FF6196"/>
<path id="Vector_4" d="M15.4519 11.28C15.4325 11.748 15.2687 12.1986 14.9831 12.57C13.9622 13.8879 12.7898 15.0811 11.49 16.125C11.2804 16.319 11.0147 16.4417 10.7311 16.4753C10.4475 16.509 10.1605 16.452 9.91127 16.3125C9.66322 16.2065 9.45407 16.0263 9.31255 15.7967C9.17104 15.567 9.10411 15.2992 9.12096 15.03C9.15098 14.6993 9.28827 14.3876 9.5119 14.1422C10.9653 12.7563 12.5401 11.5035 14.2172 10.3987C14.3271 10.3126 14.4612 10.2632 14.6007 10.2575C14.7401 10.2517 14.8779 10.29 14.9944 10.3669C15.1476 10.462 15.2714 10.5976 15.3521 10.7588C15.4329 10.92 15.4674 11.1004 15.4519 11.28Z" fill="#FF87AF"/>
<path id="Vector_5" d="M14.3288 16.9622C14.307 16.755 14.3336 16.5455 14.4065 16.3503C14.4794 16.1551 14.5965 15.9795 14.7488 15.8372C16.1719 14.5246 17.6987 13.3292 19.3144 12.2625C19.3632 12.2316 19.4082 12.2006 19.4616 12.1688C19.6027 12.0669 19.7737 12.0148 19.9477 12.0208C20.1216 12.0267 20.2887 12.0903 20.4225 12.2016C20.552 12.3113 20.6437 12.459 20.6844 12.6238C20.7251 12.7886 20.7129 12.962 20.6494 13.1194C20.445 13.8002 20.0678 14.4165 19.5544 14.9081C18.5118 15.9352 17.4491 16.9417 16.3669 17.9269C16.2039 18.0945 15.9898 18.2031 15.7583 18.2357C15.5268 18.2683 15.2911 18.223 15.0882 18.1069C14.8749 17.9961 14.6934 17.8329 14.5605 17.6327C14.4277 17.4324 14.348 17.2017 14.3288 16.9622Z" fill="#FF87AF"/>
<path id="Vector_6" d="M21.0938 17.5819C20.8313 17.8631 20.5613 18.1312 20.3091 18.4191C20.2332 18.5303 20.1703 18.6498 20.1216 18.7753C20.2603 18.8166 20.4225 18.9253 20.535 18.8869C21.1078 18.6947 21.6666 18.4641 22.2956 18.2213C22.1588 18.5363 22.0556 18.8269 21.9103 19.0931C21.3117 20.0992 20.562 21.0073 19.6875 21.7856C19.355 22.1063 19.0097 22.4128 18.6516 22.7053C18.4619 22.8627 18.2339 22.9669 17.9907 23.0072C17.7476 23.0475 17.4981 23.0225 17.2678 22.9348C17.0375 22.8471 16.8347 22.6997 16.68 22.5079C16.5253 22.316 16.4244 22.0865 16.3875 21.8428C16.3725 21.7073 16.3845 21.5702 16.4228 21.4394C16.4611 21.3086 16.5249 21.1866 16.6106 21.0806C17.8864 19.6952 19.3444 18.4895 20.9447 17.4966C20.9642 17.489 20.9848 17.4849 21.0056 17.4844L21.0938 17.5819Z" fill="#FF87AF"/>
<path id="Vector_7" d="M23.2444 13.8478L24.8484 6.72284L25.9734 6.98628L25.3931 8.74971C24.8513 10.3903 24.3028 12.031 23.7741 13.6735C23.6709 13.9772 23.5359 14.0335 23.2444 13.8478Z" fill="#FF6196"/>
<path id="Vector_8" d="M21.4331 18.0384C21.6028 17.3906 21.7715 16.7916 21.914 16.186C22.0529 15.5986 22.3171 15.0483 22.6884 14.5725C22.9162 14.2735 23.1722 14.3925 23.4337 14.4572C23.6756 14.5163 23.7365 14.6935 23.7469 14.926C23.785 15.5689 23.5892 16.2039 23.1956 16.7138C22.727 17.2946 22.1214 17.7499 21.4331 18.0384Z" fill="#FF6196"/>
<path id="Vector_9" d="M28.1185 2.71311C28.1325 2.50432 28.1272 2.29468 28.1026 2.08686C28.0832 2.02882 28.0449 1.97896 27.9938 1.9453C27.9522 1.91146 27.9035 1.88743 27.8513 1.87499C27.8213 1.86936 27.7791 1.9003 27.7388 1.94436C27.6998 1.98619 27.6666 2.0332 27.6404 2.08405C27.6167 2.17395 27.6116 2.26774 27.6254 2.35968V6.55218C26.3857 6.64017 25.1461 6.38043 24.046 5.80218C23.6864 5.63962 23.4004 5.34853 23.2443 4.98604C23.0882 4.62354 23.0732 4.21579 23.2023 3.8428C23.3419 3.31499 23.4966 2.79186 23.656 2.26968C23.6935 2.14499 23.7151 2.01655 23.656 1.94343C23.6232 1.90783 23.5778 1.88633 23.5294 1.88343C23.4675 1.88409 23.4075 1.90519 23.3588 1.94343C23.2887 1.98536 23.2329 2.04743 23.1985 2.12155C23.011 2.68405 22.846 3.25218 22.7026 3.82593C22.6484 4.05202 22.6338 4.28579 22.6594 4.51686C22.6957 4.93496 22.8512 5.33387 23.1075 5.66623C23.3637 5.99859 23.71 6.25043 24.1051 6.39186C24.2823 6.46593 24.3863 6.53905 24.3366 6.77249C24.2682 7.06874 24.2016 7.36499 24.1341 7.66218C23.6748 9.67593 23.2179 11.6906 22.7635 13.7062C22.7507 13.7961 22.7112 13.88 22.6501 13.9472C22.3506 14.1852 22.099 14.4779 21.9085 14.8097C21.6658 15.2475 21.4979 15.7228 21.4116 16.2159C21.3951 16.3732 21.3382 16.5236 21.2466 16.6525C21.155 16.7814 21.0316 16.8845 20.8885 16.9519C20.4976 17.1497 20.1385 17.4056 19.7044 17.6719C19.7334 17.1499 19.7278 16.6265 19.6876 16.1053C19.6545 15.945 19.6616 15.7789 19.708 15.622C19.7544 15.465 19.8389 15.3219 19.9538 15.2053C20.5256 14.6389 20.9332 13.928 21.1332 13.1484C21.1929 12.9677 21.2093 12.7755 21.181 12.5872C21.1527 12.399 21.0805 12.2201 20.9703 12.065C20.86 11.9098 20.7148 11.7828 20.5464 11.6941C20.3779 11.6055 20.191 11.5577 20.0007 11.5547C19.6926 11.5512 19.39 11.6372 19.1298 11.8022C18.2352 12.4131 17.3562 13.0464 16.4935 13.7015C15.9807 14.0878 15.4979 14.5153 15.001 14.9203C14.9796 14.8973 14.961 14.8718 14.9457 14.8444C14.9362 14.7753 14.9176 14.7079 14.8904 14.6437C14.4751 14.0025 14.7629 13.5366 15.2138 13.0575C15.6836 12.565 15.9432 11.909 15.9376 11.2284C15.9521 10.8817 15.8435 10.5409 15.631 10.2666C15.5178 10.1273 15.3783 10.0116 15.2204 9.92624C14.9961 9.8035 14.7397 9.75227 14.4855 9.77941C14.2313 9.80656 13.9915 9.91079 13.7982 10.0781L13.5366 10.2656C12.9394 10.6931 12.3348 11.1094 11.7601 11.5669C10.9211 12.2367 10.1002 12.9288 9.2982 13.6425C8.9232 13.9734 8.64945 14.4253 8.26039 14.7328C6.23164 16.335 4.18132 17.9081 2.13851 19.4916C2.06827 19.5335 2.00368 19.5842 1.94632 19.6425C1.94042 19.651 1.93539 19.6601 1.93132 19.6697C1.8882 19.77 1.85164 19.9359 1.90226 19.9969C1.91467 20.0101 1.92967 20.0206 1.94632 20.0278C2.03563 20.0649 2.13502 20.0698 2.22757 20.0419C2.35021 19.9782 2.46269 19.8967 2.56132 19.8L8.28007 15.3675C8.38226 15.2878 8.49007 15.2156 8.61476 15.1256C8.64829 15.4992 8.78679 15.8557 9.01428 16.1539C9.24177 16.4521 9.54898 16.6799 9.90041 16.811C10.2519 16.942 10.6332 16.971 11.0004 16.8946C11.3676 16.8182 11.7057 16.6395 11.9757 16.3791C12.6319 15.7472 13.3098 15.134 13.9782 14.5125L14.2219 14.2837C14.6307 15.0834 14.5894 15.2944 13.9613 15.7978C10.1013 18.8865 6.24414 21.9759 2.38976 25.0659C2.2257 25.1972 1.90132 25.3162 2.11414 25.5956C2.32695 25.875 2.52289 25.5872 2.68601 25.4569C6.30226 22.5687 9.91601 19.6769 13.5273 16.7812C13.621 16.7062 13.7194 16.6397 13.8554 16.5403V16.844C13.837 17.195 13.9235 17.5435 14.1038 17.8452C14.2841 18.1469 14.5501 18.3881 14.8679 18.5381C15.1794 18.6964 15.5331 18.7518 15.8781 18.6964C16.2231 18.6409 16.5416 18.4775 16.7879 18.2297C17.5313 17.5734 18.2673 16.9041 19.0069 16.2422C19.0538 16.2 19.1082 16.1681 19.1945 16.1025C19.3003 16.7469 19.2796 17.4057 19.1335 18.0422C19.0975 18.1268 19.0383 18.1996 18.9629 18.2522C18.3516 18.7803 17.7382 19.3062 17.1226 19.83L8.09257 27.495C7.98685 27.5655 7.89342 27.6529 7.81601 27.7537C7.79131 27.7997 7.77745 27.8507 7.7755 27.9029C7.77355 27.9551 7.78356 28.007 7.80476 28.0547C7.84712 28.0864 7.89609 28.1082 7.94802 28.1184C7.99996 28.1287 8.05353 28.127 8.10476 28.1137C8.14519 28.102 8.18239 28.0812 8.21351 28.0528C8.26039 28.0153 8.30726 27.9675 8.34945 27.9291L14.8773 22.3978C15.1913 22.1315 15.5082 21.869 15.8391 21.5915C15.8559 21.6361 15.8694 21.6819 15.8794 21.7284C15.8982 22.0903 16.0228 22.4387 16.2378 22.7303C16.4528 23.022 16.7487 23.2441 17.0888 23.369C17.4248 23.515 17.7972 23.5556 18.1567 23.4855C18.5163 23.4153 18.8461 23.2378 19.1026 22.9762C19.5376 22.5797 19.9669 22.1765 20.3982 21.7753C20.6794 21.5175 20.9513 21.2587 21.2476 20.9803C21.3028 21.1727 21.3475 21.368 21.3816 21.5653C21.4247 22.0245 21.3614 22.4874 21.1965 22.9181C21.0316 23.3488 20.7697 23.7357 20.431 24.0487C19.3444 25.2187 18.2335 26.3634 17.1319 27.5175C17.0598 27.5925 16.9604 27.6544 16.921 27.7434C16.8816 27.8325 16.8563 28.0069 16.9032 28.0444L16.9163 28.0528C17.0146 28.1006 17.1252 28.1173 17.2332 28.1006C17.2635 28.0944 17.2905 28.0774 17.3091 28.0528C17.3354 28.0256 17.3607 27.9919 17.386 27.9665C18.2785 27.044 19.1757 26.1262 20.0616 25.1972C20.4192 24.8349 20.7554 24.452 21.0685 24.0506C21.4768 23.5987 21.7474 23.0395 21.8488 22.439C21.9501 21.8385 21.8778 21.2215 21.6404 20.6606C21.6149 20.5356 21.6398 20.4055 21.7098 20.2987C21.7707 20.1937 21.8382 20.0915 21.9076 19.9903C22.1296 19.7021 22.3144 19.3871 22.4579 19.0528C22.7351 18.2323 23.1606 17.4696 23.7132 16.8028C23.9673 16.4807 24.142 16.1034 24.2235 15.7013C24.3049 15.2993 24.2907 14.8837 24.1819 14.4881C24.1435 14.3377 24.1435 14.1801 24.1819 14.0297C24.6563 12.5606 25.1448 11.0962 25.6285 9.63093L26.2754 7.6678L26.4751 7.06124C26.9007 7.06124 27.302 7.0528 27.7013 7.06124C28.0332 7.07061 28.1345 6.91499 28.1307 6.59249C28.111 5.29874 28.1185 4.00593 28.1185 2.71311ZM11.4901 16.125C11.2805 16.319 11.0148 16.4417 10.7312 16.4753C10.4475 16.509 10.1605 16.452 9.91132 16.3125C9.66327 16.2065 9.45412 16.0263 9.3126 15.7967C9.17109 15.567 9.10416 15.2992 9.12101 15.03C9.15104 14.6993 9.28832 14.3876 9.51195 14.1422C10.9654 12.7563 12.5401 11.5035 14.2173 10.3987C14.3088 10.334 14.4129 10.2893 14.5229 10.2675C14.5966 10.2539 14.6723 10.2539 14.746 10.2675C14.8343 10.2847 14.9186 10.3184 14.9944 10.3669C15.1478 10.462 15.2717 10.5978 15.3524 10.7592C15.4332 10.9206 15.4676 11.1012 15.4519 11.2809C15.4325 11.749 15.2688 12.1996 14.9832 12.5709C13.9622 13.8885 12.7898 15.0814 11.4901 16.125ZM16.3651 17.9334C16.2021 18.101 15.988 18.2097 15.7565 18.2423C15.525 18.2748 15.2892 18.2295 15.0863 18.1134C14.8727 18.0024 14.6909 17.8388 14.5581 17.638C14.4252 17.4372 14.3457 17.2059 14.3269 16.9659C14.3052 16.7587 14.3318 16.5492 14.4047 16.354C14.4775 16.1588 14.5947 15.9832 14.7469 15.8409C16.1701 14.5283 17.6969 13.3329 19.3126 12.2662C19.3613 12.2353 19.4063 12.2044 19.4598 12.1725C19.6009 12.0706 19.7719 12.0185 19.9458 12.0245C20.1198 12.0304 20.2868 12.094 20.4207 12.2053C20.5502 12.315 20.6418 12.4627 20.6826 12.6275C20.7233 12.7923 20.7111 12.9657 20.6476 13.1231C20.4432 13.8039 20.0659 14.4202 19.5526 14.9119C18.5185 15.945 17.4432 16.9397 16.3669 17.9297L16.3651 17.9334ZM21.9066 19.0969C21.3088 20.1013 20.5604 21.0081 19.6876 21.7856C19.3551 22.1062 19.0098 22.4128 18.6516 22.7053C18.462 22.8627 18.2339 22.9669 17.9908 23.0072C17.7477 23.0475 17.4982 23.0225 17.2679 22.9348C17.0376 22.8471 16.8347 22.6997 16.68 22.5079C16.5254 22.316 16.4244 22.0865 16.3876 21.8428C16.3725 21.7073 16.3845 21.5702 16.4228 21.4394C16.4611 21.3085 16.525 21.1866 16.6107 21.0806C17.8865 19.6952 19.3445 18.4895 20.9448 17.4965C20.9642 17.489 20.9848 17.4849 21.0057 17.4844L21.0994 17.5781C20.837 17.8594 20.5669 18.1275 20.3148 18.4153C20.2389 18.5265 20.176 18.6461 20.1273 18.7716C20.266 18.8128 20.4282 18.9216 20.5407 18.8831C20.9935 18.7312 21.4388 18.555 21.916 18.3675L22.3013 18.2175C22.1569 18.5362 22.0538 18.8269 21.9085 19.0931L21.9066 19.0969ZM23.1938 16.7203C22.8441 17.1655 22.4058 17.5333 21.9066 17.8003C21.7523 17.8865 21.5938 17.9672 21.4313 18.0422C21.5982 17.4037 21.7651 16.8122 21.9066 16.2141L21.9123 16.1897C22.0511 15.6024 22.3153 15.052 22.6866 14.5762C22.9144 14.2772 23.1704 14.3962 23.4319 14.4609C23.6738 14.52 23.7348 14.6972 23.7451 14.9297C23.7835 15.5721 23.5884 16.2067 23.1957 16.7165L23.1938 16.7203ZM25.3876 8.75155C24.8457 10.3922 24.2973 12.0328 23.7685 13.6753C23.6691 13.9837 23.5341 14.04 23.2426 13.8544L24.6329 7.67343L24.8466 6.72468L25.9716 6.98811L25.7457 7.67343L25.3876 8.75155Z" fill="black"/>
</g>
</g>
</svg>
